<svg id="visual" viewBox="0 0 1920 1080" width="1920" height="1080" xmlns="http://www.w3.org/2000/svg" xmlns:xlink="http://www.w3.org/1999/xlink" version="1.1"><rect x="0" y="0" width="1920" height="1080" fill="#7c1f44"></rect><defs><linearGradient id="grad1_0" x1="43.8%" y1="100%" x2="100%" y2="0%"><stop offset="14.444444444444446%" stop-color="#fa3cc2" stop-opacity="1"></stop><stop offset="85.55555555555554%" stop-color="#fa3cc2" stop-opacity="1"></stop></linearGradient></defs><defs><linearGradient id="grad1_1" x1="43.8%" y1="100%" x2="100%" y2="0%"><stop offset="14.444444444444446%" stop-color="#fa3cc2" stop-opacity="1"></stop><stop offset="85.55555555555554%" stop-color="#d22e91" stop-opacity="1"></stop></linearGradient></defs><defs><linearGradient id="grad1_2" x1="43.8%" y1="100%" x2="100%" y2="0%"><stop offset="14.444444444444446%" stop-color="#a72567" stop-opacity="1"></stop><stop offset="85.55555555555554%" stop-color="#d22e91" stop-opacity="1"></stop></linearGradient></defs><defs><linearGradient id="grad1_3" x1="43.8%" y1="100%" x2="100%" y2="0%"><stop offset="14.444444444444446%" stop-color="#a72567" stop-opacity="1"></stop><stop offset="85.55555555555554%" stop-color="#7c1f44" stop-opacity="1"></stop></linearGradient></defs><defs><linearGradient id="grad2_0" x1="0%" y1="100%" x2="56.3%" y2="0%"><stop offset="14.444444444444446%" stop-color="#fa3cc2" stop-opacity="1"></stop><stop offset="85.55555555555554%" stop-color="#fa3cc2" stop-opacity="1"></stop></linearGradient></defs><defs><linearGradient id="grad2_1" x1="0%" y1="100%" x2="56.3%" y2="0%"><stop offset="14.444444444444446%" stop-color="#d22e91" stop-opacity="1"></stop><stop offset="85.55555555555554%" stop-color="#fa3cc2" stop-opacity="1"></stop></linearGradient></defs><defs><linearGradient id="grad2_2" x1="0%" y1="100%" x2="56.3%" y2="0%"><stop offset="14.444444444444446%" stop-color="#d22e91" stop-opacity="1"></stop><stop offset="85.55555555555554%" stop-color="#a72567" stop-opacity="1"></stop></linearGradient></defs><defs><linearGradient id="grad2_3" x1="0%" y1="100%" x2="56.3%" y2="0%"><stop offset="14.444444444444446%" stop-color="#7c1f44" stop-opacity="1"></stop><stop offset="85.55555555555554%" stop-color="#a72567" stop-opacity="1"></stop></linearGradient></defs><g transform="translate(1920, 1080)"><path d="M-540 0C-519.3 -54.8 -498.6 -109.6 -467 -151.7C-435.3 -193.9 -392.7 -223.4 -365.7 -265.7C-338.6 -308 -327.2 -363 -297.4 -409.4C-267.6 -455.7 -219.5 -493.3 -166.9 -513.6C-114.2 -533.9 -57.1 -536.9 0 -540L0 0Z" fill="#922254"></path><path d="M-405 0C-389.5 -41.1 -374 -82.2 -350.2 -113.8C-326.5 -145.4 -294.5 -167.5 -274.3 -199.3C-254 -231 -245.4 -272.3 -223.1 -307C-200.7 -341.8 -164.6 -369.9 -125.2 -385.2C-85.7 -400.4 -42.8 -402.7 0 -405L0 0Z" fill="#bd297b"></path><path d="M-270 0C-259.7 -27.4 -249.3 -54.8 -233.5 -75.9C-217.7 -96.9 -196.4 -111.7 -182.8 -132.8C-169.3 -154 -163.6 -181.5 -148.7 -204.7C-133.8 -227.8 -109.7 -246.6 -83.4 -256.8C-57.1 -266.9 -28.6 -268.5 0 -270L0 0Z" fill="#e634a8"></path><path d="M-135 0C-129.8 -13.7 -124.7 -27.4 -116.7 -37.9C-108.8 -48.5 -98.2 -55.8 -91.4 -66.4C-84.7 -77 -81.8 -90.8 -74.4 -102.3C-66.9 -113.9 -54.9 -123.3 -41.7 -128.4C-28.6 -133.5 -14.3 -134.2 0 -135L0 0Z" fill="#fa3cc2"></path></g><g transform="translate(0, 0)"><path d="M540 0C544.1 62.8 548.2 125.7 513.6 166.9C478.9 208.1 405.6 227.6 366.5 266.3C327.4 304.9 322.5 362.6 293.9 404.5C265.3 446.5 213 472.7 160.1 492.6C107.1 512.6 53.6 526.3 0 540L0 0Z" fill="#922254"></path><path d="M405 0C408.1 47.1 411.1 94.2 385.2 125.2C359.2 156.1 304.2 170.7 274.9 199.7C245.5 228.7 241.9 271.9 220.4 303.4C199 334.8 159.8 354.5 120.1 369.5C80.4 384.5 40.2 394.7 0 405L0 0Z" fill="#bd297b"></path><path d="M270 0C272 31.4 274.1 62.8 256.8 83.4C239.5 104 202.8 113.8 183.2 133.1C163.7 152.4 161.2 181.3 146.9 202.3C132.7 223.2 106.5 236.3 80 246.3C53.6 256.3 26.8 263.2 0 270L0 0Z" fill="#e634a8"></path><path d="M135 0C136 15.7 137 31.4 128.4 41.7C119.7 52 101.4 56.9 91.6 66.6C81.8 76.2 80.6 90.6 73.5 101.1C66.3 111.6 53.3 118.2 40 123.2C26.8 128.2 13.4 131.6 0 135L0 0Z" fill="#fa3cc2"></path></g></svg>